<?xml version="1.0" encoding="UTF-8"?>
<svg id="Layer_2" data-name="Layer 2" xmlns="http://www.w3.org/2000/svg" xmlns:xlink="http://www.w3.org/1999/xlink" viewBox="0 0 210.25 213.22">
  <defs>
    <style>
      .cls-1 {
        fill: url(#linear-gradient-2);
      }

      .cls-2 {
        fill: url(#linear-gradient-14);
      }

      .cls-3 {
        fill: url(#linear-gradient-6);
      }

      .cls-4 {
        fill: url(#linear-gradient-11);
      }

      .cls-5 {
        fill: #fff;
        stroke: #b3b3b3;
        stroke-width: .25px;
      }

      .cls-5, .cls-6 {
        stroke-miterlimit: 10;
      }

      .cls-7 {
        fill: url(#linear-gradient-10);
      }

      .cls-8 {
        fill: url(#linear-gradient-5);
      }

      .cls-9 {
        fill: url(#linear-gradient-7);
      }

      .cls-10 {
        fill: url(#linear-gradient-9);
      }

      .cls-11 {
        fill: url(#linear-gradient-3);
      }

      .cls-12 {
        fill: url(#linear-gradient);
      }

      .cls-13 {
        fill: url(#linear-gradient-4);
      }

      .cls-14 {
        fill: #16765b;
      }

      .cls-6 {
        fill: none;
        stroke: #000;
        stroke-width: 9px;
      }

      .cls-15 {
        fill: url(#linear-gradient-8);
      }

      .cls-16 {
        fill: url(#linear-gradient-12);
      }

      .cls-17 {
        fill: url(#linear-gradient-13);
      }
    </style>
    <linearGradient id="linear-gradient" x1="128.23" y1="23.04" x2="110.45" y2="38.84" gradientUnits="userSpaceOnUse">
      <stop offset="0" stop-color="#a6da46"/>
      <stop offset="1" stop-color="#212121"/>
      <stop offset="1" stop-color="#d2d2d2"/>
      <stop offset="1" stop-color="#fff"/>
      <stop offset="1" stop-color="#181818"/>
      <stop offset="1" stop-color="#2e2e2e"/>
      <stop offset="1" stop-color="#454545"/>
      <stop offset="1" stop-color="#696969"/>
    </linearGradient>
    <linearGradient id="linear-gradient-2" x1="33.88" y1="88.65" x2="12.63" y2="202.09" gradientUnits="userSpaceOnUse">
      <stop offset="0" stop-color="#000"/>
      <stop offset=".12" stop-color="#131313"/>
      <stop offset="1" stop-color="#03504a"/>
      <stop offset="1" stop-color="#181818"/>
      <stop offset="1" stop-color="#2e2e2e"/>
      <stop offset="1" stop-color="#454545"/>
      <stop offset="1" stop-color="#696969"/>
      <stop offset="1" stop-color="#b7b7b7"/>
      <stop offset="1" stop-color="#d2d2d2"/>
      <stop offset="1" stop-color="#fff"/>
      <stop offset="1" stop-color="#fff"/>
    </linearGradient>
    <linearGradient id="linear-gradient-3" x1="60.47" y1="83.31" x2="48.47" y2="133.43" gradientUnits="userSpaceOnUse">
      <stop offset="0" stop-color="#131313"/>
      <stop offset="0" stop-color="#000"/>
      <stop offset="1" stop-color="#0f2220"/>
    </linearGradient>
    <linearGradient id="linear-gradient-4" x1="38.41" y1="129.31" x2="31.94" y2="198.66" gradientUnits="userSpaceOnUse">
      <stop offset="0" stop-color="#7c7c7c"/>
      <stop offset="0" stop-color="#131313"/>
      <stop offset=".12" stop-color="#000"/>
      <stop offset="1" stop-color="#046e65"/>
    </linearGradient>
    <linearGradient id="linear-gradient-5" x1="91.63" y1="99.21" x2="94.17" y2="195.4" xlink:href="#linear-gradient-4"/>
    <linearGradient id="linear-gradient-6" x1="83.16" y1="181.55" x2="104.4" y2="181.55" gradientUnits="userSpaceOnUse">
      <stop offset="0" stop-color="#1f705b"/>
      <stop offset="1" stop-color="#228760"/>
    </linearGradient>
    <linearGradient id="linear-gradient-7" x1="77.55" y1="149.81" x2="88.19" y2="161.38" gradientUnits="userSpaceOnUse">
      <stop offset="0" stop-color="#0f6455"/>
      <stop offset="1" stop-color="#046e65"/>
    </linearGradient>
    <linearGradient id="linear-gradient-8" x1="126.22" y1="174.11" x2="166.46" y2="123.95" gradientUnits="userSpaceOnUse">
      <stop offset="0" stop-color="#42985e"/>
      <stop offset=".97" stop-color="#a0d552"/>
    </linearGradient>
    <linearGradient id="linear-gradient-9" x1="127.9" y1="28.24" x2="1.3" y2="31.2" gradientUnits="userSpaceOnUse">
      <stop offset="0" stop-color="#7c7c7c"/>
      <stop offset="0" stop-color="#131313"/>
      <stop offset="0" stop-color="#000"/>
      <stop offset="1" stop-color="#fff"/>
      <stop offset="1" stop-color="#181818"/>
      <stop offset="1" stop-color="#2e2e2e"/>
      <stop offset="1" stop-color="#454545"/>
      <stop offset="1" stop-color="#696969"/>
      <stop offset="1" stop-color="#b7b7b7"/>
      <stop offset="1" stop-color="#d2d2d2"/>
      <stop offset="1" stop-color="#fff"/>
    </linearGradient>
    <linearGradient id="linear-gradient-10" x1="123.79" y1="150.64" x2="134.83" y2="85.77" gradientUnits="userSpaceOnUse">
      <stop offset="0" stop-color="#318d58"/>
      <stop offset="1" stop-color="#85cd3f"/>
    </linearGradient>
    <linearGradient id="linear-gradient-11" x1="166.31" y1="144.04" x2="151.8" y2="72.68" gradientUnits="userSpaceOnUse">
      <stop offset=".02" stop-color="#93cd61"/>
      <stop offset=".17" stop-color="#a2d55c"/>
      <stop offset=".63" stop-color="#cfee4e"/>
      <stop offset=".87" stop-color="#e1f849"/>
    </linearGradient>
    <linearGradient id="linear-gradient-12" x1="124.45" y1="21.33" x2="22.26" y2="23.05" gradientUnits="userSpaceOnUse">
      <stop offset="0" stop-color="#7c7c7c"/>
      <stop offset="0" stop-color="#131313"/>
      <stop offset="0" stop-color="#424f2a"/>
      <stop offset=".86" stop-color="#fff"/>
      <stop offset="1" stop-color="#fff"/>
      <stop offset="1" stop-color="#181818"/>
      <stop offset="1" stop-color="#2e2e2e"/>
      <stop offset="1" stop-color="#454545"/>
      <stop offset="1" stop-color="#696969"/>
      <stop offset="1" stop-color="#b7b7b7"/>
      <stop offset="1" stop-color="#d2d2d2"/>
    </linearGradient>
    <linearGradient id="linear-gradient-13" x1="143.31" y1="86.7" x2="82.88" y2="37.2" gradientUnits="userSpaceOnUse">
      <stop offset="0" stop-color="#7ec841"/>
      <stop offset=".06" stop-color="#74b73c"/>
      <stop offset=".18" stop-color="#5b8d32"/>
      <stop offset=".34" stop-color="#334a21"/>
      <stop offset=".46" stop-color="#131313"/>
      <stop offset=".99" stop-color="#7c7c7c"/>
      <stop offset="1" stop-color="#181818"/>
      <stop offset="1" stop-color="#2e2e2e"/>
      <stop offset="1" stop-color="#454545"/>
      <stop offset="1" stop-color="#696969"/>
      <stop offset="1" stop-color="#b7b7b7"/>
    </linearGradient>
    <linearGradient id="linear-gradient-14" x1="160.41" y1="87.37" x2="116.11" y2="4.11" gradientUnits="userSpaceOnUse">
      <stop offset=".05" stop-color="#91cc47"/>
      <stop offset=".93" stop-color="#cdf443"/>
    </linearGradient>
  </defs>
  <g id="Piste5">
    <g>
      <rect class="cls-5" x="175.12" y="195.59" width="17.5" height="17.5"/>
      <rect class="cls-5" x="17.62" y="195.59" width="17.5" height="17.5"/>
      <rect class="cls-5" x="35.12" y="195.59" width="17.5" height="17.5"/>
      <rect class="cls-5" x=".12" y="195.59" width="17.5" height="17.5"/>
      <rect class="cls-5" x=".12" y="178.09" width="17.5" height="17.5"/>
      <rect class="cls-5" x=".12" y="160.59" width="17.5" height="17.5"/>
      <rect class="cls-5" x="192.63" y="195.59" width="17.5" height="17.5"/>
      <rect class="cls-5" x="192.62" y="178.09" width="17.5" height="17.5"/>
      <g>
        <path class="cls-12" d="m133.36,57.06h0c-5.14-5.51-11.13-10.78-18.07-15.79,2.65-18.84-9.28-36.27-9.61-36.76,0,0,0,0-.01,0,.01,0,.01,0,.01,0h0c12.09,9.89,23.23,25.6,27.67,52.54h0Z"/>
        <path class="cls-1" d="m48.39,80.34c-4.08,12.74-6.87,30.84-7.48,50.78-16.65,25.73-21.62,52.33-22.89,61.3-.29,2.04-.39,3.17-.39,3.17v-98.59c0-.85.06-1.68.19-2.49h0c1.2-7.88,8.01-14.17,16.22-14.17h14.35Z"/>
        <path class="cls-11" d="m69.62,80.34v19.45c-12.18,9.28-21.54,20.23-28.72,31.33.61-19.94,3.4-38.04,7.48-50.78h21.24Z"/>
        <path class="cls-13" d="m46.84,195.5l-29.22.09s.1-1.13.39-3.17c1.27-8.97,6.24-35.57,22.89-61.3-.52,17.48.63,36.56,4.07,55.23.56,3.07,1.18,6.12,1.87,9.15Z"/>
        <path class="cls-8" d="m145.76,180.09c-13.65,8.86-30.3,14.2-49.13,15.25l-49.78.16c-.69-3.03-1.31-6.08-1.87-9.15-3.44-18.67-4.59-37.75-4.07-55.23,7.18-11.1,16.54-22.05,28.72-31.33v43.55s-1,20.66,9.72,34.69c9.62,12.6,28.69,19.87,66.41,2.06Z"/>
        <path class="cls-14" d="m79.34,178.03c.26-.06.52-.12.78-.19,6.39-1.6,12.35-3.43,17.89-5.47"/>
        <path class="cls-3" d="m145.76,180.09c-37.72,17.81-56.79,10.54-66.41-2.06.26-.06.52-.12.78-.19,6.39-1.6,12.35-3.43,17.89-5.47,5.71,9.33,18.88,15.46,47.74,7.72Z"/>
        <path class="cls-9" d="m98.02,172.37c-5.54,2.04-11.5,3.87-17.89,5.47-.26.07-.52.13-.78.19-10.72-14.03-9.72-34.69-9.72-34.69h26s.04,0,.13-.01c-1.09,4.67-3.78,19.18,2.26,29.04Z"/>
        <path class="cls-15" d="m162.01,166.39c-4.78,5.19-10.21,9.78-16.22,13.68h-.01s0,.01,0,.01t-.02.01c-28.86,7.74-42.03,1.61-47.74-7.72,37.39-13.76,55.97-37.03,62-61.97,3.53,18.15,3.29,37.12,2,55.99Z"/>
        <path class="cls-6" d="m105.65,4.5s0,.01,0,.01h.01"/>
        <path class="cls-6" d="m105.65,4.51s0-.01,0-.01"/>
        <path class="cls-10" d="m115.27,41.27c-.68,4.95-2.38,10-5.56,14.87h-.01c-3.23-1.32-5.84-1.8-7.07-1.8H34.03c-8.52,0-15.52-6.5-16.34-14.8-.04-.53-.07-1.07-.07-1.61V3.34c44.56,9.15,75.85,22.23,97.64,37.93Z"/>
        <path class="cls-7" d="m133.33,57.06c15.13,16.17,22.98,34.31,26.68,53.34-6.03,24.94-24.61,48.21-62,61.97-6.04-9.86-3.35-24.37-2.26-29.04,2.42-.1,37.9-2.36,38.87-40.99,1.39-17.88.77-32.78-1.29-45.28Z"/>
        <path class="cls-4" d="m185.62,103.34c-.43,25.46-8.96,47.12-23.61,63.05,1.29-18.87,1.53-37.84-2-55.99,10.97-45.44-19.71-96.47-54.35-105.89,10.7,1.53,21.15,4.61,30.95,9.28,22.82,10.88,49.01,32.8,49.01,76.55,0,1,.02,12.02,0,13Z"/>
        <path class="cls-16" d="m115.27,41.27C93.47,25.57,62.19,12.49,17.62,3.34h71.68c5.48,0,10.94.39,16.34,1.16.01,0,.01.01.01.01.33.49,12.26,17.92,9.61,36.76Z"/>
        <path class="cls-17" d="m134.6,102.34c.75-30.18-14.99-42.14-24.92-46.2,3.18-4.87,4.88-9.92,5.56-14.87,6.94,5.01,12.93,10.28,18.07,15.78h0c2.06,12.51,2.68,27.41,1.29,45.29Z"/>
        <path class="cls-2" d="m160.02,110.4c-3.7-19.03-11.55-37.17-26.68-53.34h0c-.03-.21-.07-.4-.1-.6-4.39-25.94-15.04-41.37-26.7-51.22-.29-.25-.58-.49-.87-.73.15.02.29.04.44.07.06,0,.11.01.17.02.46.07.93.14,1.39.22-.46-.08-.92-.15-1.38-.21.05.05.09.08.14.12.41.12.83.25,1.24.38.1.03.19.06.29.09.41.13.82.27,1.22.42.46.16.92.33,1.37.51.46.17.91.35,1.36.55.46.19.91.38,1.36.59.45.2.9.41,1.35.63.41.2.81.4,1.22.61.09.04.18.09.27.14.33.17.66.35.99.53.51.27,1.01.56,1.51.85.44.25.88.52,1.32.79,1.31.8,2.6,1.66,3.88,2.58.43.3.85.61,1.27.93.31.23.62.47.93.7.36.28.71.56,1.06.85.42.33.84.68,1.25,1.03,1.66,1.39,3.28,2.87,4.86,4.44.4.39.79.79,1.18,1.19.36.36.71.73,1.06,1.11.44.47.88.94,1.3,1.42.31.34.61.68.91,1.03.46.53.92,1.06,1.37,1.6.33.4.66.81.99,1.22.72.9,1.43,1.81,2.12,2.74.35.46.69.93,1.03,1.41.34.47.68.95,1.01,1.43.33.48.66.97.99,1.46.65.98,1.29,1.97,1.91,2.98.31.5.62,1.01.92,1.52.28.47.55.93.81,1.4.33.57.65,1.14.96,1.72.29.52.58,1.05.85,1.58.28.53.56,1.07.83,1.61,1.9,3.77,3.58,7.68,5.02,11.7.16.45.32.9.48,1.36,1.64,4.75,2.93,9.65,3.83,14.62.11.61.22,1.22.32,1.83.4,2.44.7,4.89.9,7.34.04.43.07.86.1,1.29.58,8.49-.02,17.09-2.05,25.49Z"/>
      </g>
      <rect class="cls-5" x=".12" y="3.09" width="17.5" height="17.5"/>
    </g>
  </g>
</svg>